# xmcd
#
# Track frame offsets: 
#        150
#        11352
#        23362
#        33495
#        43810
#        56420
#        68270
#        79472
#        89460
#        99297
#        111685
#        123500
#        135380
#        146647
#        158782
#        170307
#        179930
#        190500
#        203352
#        216265
#        228212
#        240170
#        249070
#        258622
#        269317
#        280365
#        290165
#        300810
#        311470
#        322275
#
# Disc length: 4438 seconds
#
# Revision: 3
# Processed by: cddbd v1.5.2PL0 Copyright (c) Steve Scherf et al.
# Submitted via: ExactAudioCopy v1.3
#
DISCID=9d11541e
DTITLE=Bill Monroe - Bill Monroe_Bluegrass 1950-1958_CD3
DYEAR=1989
DGENRE=Bluegrass
TTITLE0=Sitting Alone In The Moonlight
TTITLE1=Plant Some Flowers By My Grave
TTITLE2=Changing Partners
TTITLE3=Y'all Come
TTITLE4=On And On
TTITLE5=I Believe In You Darling
TTITLE6=New John Henry Blues
TTITLE7=White House Blues
TTITLE8=Happy On My Way
TTITLE9=I'm Working On A Building
TTITLE10=A Voice From On High
TTITLE11=He Will Set Your Fields On Fire
TTITLE12=Close By
TTITLE13=My Little Georgia Rose
TTITLE14=Put My Little Shoes Away
TTITLE15=Blue Moon Of Kentucky
TTITLE16=Wheel Hoss
TTITLE17=Cheyenne
TTITLE18=You'll Find Her Name Written There
TTITLE19=Roanoke
TTITLE20=Wait A Little Longer, Please Jesus
TTITLE21=Let The Light Shine Down On Me
TTITLE22=Used To Be
TTITLE23=Tall Timber
TTITLE24=Brown County Breakdown
TTITLE25=A Fallen Star
TTITLE26=Four Walls
TTITLE27=A Good Woman's Love
TTITLE28=Cry, Cry Darlin'
TTITLE29=I'm Sitting On Top Of The World
EXTD=
EXTT0=
EXTT1=
EXTT2=
EXTT3=
EXTT4=
EXTT5=
EXTT6=
EXTT7=
EXTT8=
EXTT9=
EXTT10=
EXTT11=
EXTT12=
EXTT13=
EXTT14=
EXTT15=
EXTT16=
EXTT17=
EXTT18=
EXTT19=
EXTT20=
EXTT21=
EXTT22=
EXTT23=
EXTT24=
EXTT25=
EXTT26=
EXTT27=
EXTT28=
EXTT29=
PLAYORDER=
